<?xml version="1.0" encoding="UTF-8" standalone="no"?>
<!-- Created with Inkscape (http://www.inkscape.org/) -->

<svg
   width="140.74698mm"
   height="133.59036mm"
   viewBox="0 0 140.74698 133.59036"
   version="1.1"
   id="svg1"
   xml:space="preserve"
   inkscape:export-filename="globe.svg"
   inkscape:export-xdpi="96"
   inkscape:export-ydpi="96"
   xmlns:inkscape="http://www.inkscape.org/namespaces/inkscape"
   xmlns:sodipodi="http://sodipodi.sourceforge.net/DTD/sodipodi-0.dtd"
   xmlns="http://www.w3.org/2000/svg"
   xmlns:svg="http://www.w3.org/2000/svg"><sodipodi:namedview
     id="namedview1"
     pagecolor="#ffffff"
     bordercolor="#000000"
     borderopacity="0.25"
     inkscape:showpageshadow="2"
     inkscape:pageopacity="0.0"
     inkscape:pagecheckerboard="0"
     inkscape:deskcolor="#d1d1d1"
     inkscape:document-units="mm"
     inkscape:zoom="2.6618687"
     inkscape:cx="1600.943"
     inkscape:cy="1273.3536"
     inkscape:window-width="1920"
     inkscape:window-height="986"
     inkscape:window-x="-11"
     inkscape:window-y="-11"
     inkscape:window-maximized="1"
     inkscape:current-layer="g12"><inkscape:page
       x="0"
       y="0"
       width="140.74698"
       height="133.59036"
       id="page20"
       margin="0"
       bleed="0" /></sodipodi:namedview><defs
     id="defs1" /><g
     inkscape:label="Layer 1"
     inkscape:groupmode="layer"
     id="layer1"
     transform="translate(-346.69878,-273.54217)"><g
       id="g12"
       transform="matrix(0.04482429,0,0,0.04084839,366.28368,287.94842)">
		
		
		<g
   id="g11">
			
			
			
			
			
			
			
			<g
   id="g20"
   transform="matrix(1.5393327,0,0,1.5393327,-560.20536,-317.86289)"><path
     style="fill:#f55a5a;fill-opacity:1"
     d="m 1534.385,1074.944 c -155.377,298.323 -427.453,761.968 -427.453,761.968 0,0 -309.655,-440.027 -451.358,-759.482 -65.085,-146.726 -77.148,-279.262 -61.62,-372.674 37.567,-225.984 202.08,-440.258 450.751,-460.472 292.002,-23.736 496.148,121.322 559.289,449.054 26.103,135.489 -9.675,266.532 -69.609,381.606 z"
     id="path1-7"
     transform="translate(2.1844555e-4,7.1402241e-5)" /><path
     style="fill:#ffffff"
     d="m 1441.717,781.566 c 0,197.941 -144.952,338.036 -342.893,338.036 -197.941,0 -358.404,-136.078 -358.404,-334.019 0,-197.941 142.41,-368.405 340.351,-368.405 197.941,0 360.946,166.447 360.946,364.388 z"
     id="path2-9"
     transform="translate(2.1844555e-4,7.1402241e-5)" /><path
     d="m 910.173,311.703 c -0.144,0.055 -0.288,0.111 -0.433,0.166 -0.102,0.039 -0.212,0.082 -0.327,0.128 -0.138,0.056 -0.276,0.114 -0.414,0.171 -1.631,0.684 -3.568,1.633 1.174,-0.465 z"
     id="path3-0" /><path
     d="m 1630.088,651.591 c -21.597,-102.28 -61.235,-204.646 -129.572,-285.07 -30.044,-35.358 -65.555,-66.663 -104.965,-91.209 -39.171,-24.396 -82.13,-41.703 -126.621,-53.677 -46.742,-12.58 -95.183,-18.179 -143.532,-18.603 -56.449,-0.496 -113.626,4.527 -167.819,20.965 -112.017,33.977 -208.495,109.411 -275.704,204.492 -68.75,97.261 -114.085,212.87 -123.122,332.08 -4.67,61.603 2.085,124.155 15.209,184.374 14.967,68.674 40.5,133.497 70.121,197.024 48.711,104.47 105.191,205.301 164.009,304.365 54.177,91.249 110.845,181.018 169.166,269.67 32.293,49.087 65.035,97.899 98.619,146.115 1.583,2.273 3.168,4.547 4.762,6.813 14.469,20.565 41.109,-7.014 48.319,-19.301 34.067,-58.056 67.754,-116.337 101.331,-174.676 71.457,-124.155 142.183,-248.742 211.368,-374.179 38.966,-70.647 77.472,-141.56 114.753,-213.113 35.093,-67.64 62.987,-139.283 76.911,-214.422 13.693,-73.893 12.275,-148.201 -3.233,-221.648 z m -933.434,426.307 c 0.914,1.963 0.546,1.176 0,0 z m 883.805,-235.889 c -0.02,0.285 -0.039,0.663 -0.055,1.06 -0.124,1.197 -0.287,2.4 -0.411,3.56 -0.449,4.198 -0.95,8.391 -1.497,12.578 -1.154,8.821 -2.522,17.613 -4.102,26.368 -3.069,17.008 -6.911,33.874 -11.446,50.55 -0.121,0.446 -0.241,0.996 -0.349,1.555 -0.339,1.105 -0.733,2.213 -1.028,3.201 -1.2,4.023 -2.44,8.034 -3.717,12.034 -2.695,8.44 -5.558,16.827 -8.581,25.156 -5.721,15.766 -12.009,31.325 -18.788,46.666 -1.505,3.405 -3.034,6.798 -4.586,10.181 -0.739,1.609 -1.49,3.213 -2.238,4.818 -0.018,0.037 -0.033,0.067 -0.052,0.105 -3.699,7.49 -7.402,14.972 -11.249,22.388 -68.079,130.661 -139.831,259.417 -212.278,387.695 -59.368,105.119 -119.455,209.834 -180.131,314.203 -2.286,3.933 -4.578,7.863 -6.865,11.795 -15.888,-23.071 -31.552,-46.3 -47.14,-69.57 -52.703,-78.677 -104.052,-158.275 -153.73,-238.897 -59.716,-96.914 -117.277,-195.311 -169.618,-296.428 -12.61,-24.36 -24.896,-48.891 -36.735,-73.635 -2.789,-5.829 -5.553,-11.669 -8.289,-17.523 -0.331,-0.707 -0.66,-1.415 -0.99,-2.123 -0.288,-0.62 -0.609,-1.312 -0.811,-1.754 -1.609,-3.512 -3.222,-7.022 -4.816,-10.541 -6.728,-14.844 -13.245,-29.778 -19.271,-44.922 -13.274,-33.356 -24.507,-67.537 -33.291,-102.351 -4.037,-16 -7.556,-32.132 -10.508,-48.368 -1.299,-7.145 -2.49,-14.31 -3.565,-21.493 -0.013,-0.087 -0.196,-1.345 -0.376,-2.576 -0.186,-1.394 -0.52,-3.844 -0.537,-3.983 -0.515,-4.061 -0.993,-8.128 -1.432,-12.198 -3.013,-27.945 -4.22,-56.109 -3.159,-84.204 0.22,-5.829 0.551,-11.653 0.977,-17.47 0.011,-0.576 0.046,-1.3 0.109,-1.903 0.06,-0.575 0.121,-1.149 0.18,-1.724 0.049,-0.561 0.098,-1.122 0.118,-1.678 -0.011,0.3 -0.022,0.585 -0.032,0.86 0.254,-2.433 0.51,-4.865 0.801,-7.295 1.533,-12.798 3.693,-25.512 6.205,-38.153 2.545,-12.808 5.491,-25.536 8.83,-38.161 0.748,-2.829 4.811,-15.694 0.633,-2.562 0.881,-2.77 1.623,-5.589 2.463,-8.373 2.103,-6.967 4.325,-13.898 6.667,-20.788 4.219,-12.411 8.824,-24.691 13.81,-36.813 2.493,-6.061 5.082,-12.083 7.765,-18.063 1.074,-2.393 2.179,-4.772 3.279,-7.153 0.708,-1.452 1.413,-2.905 2.132,-4.352 11.561,-23.286 24.616,-45.833 39.12,-67.411 -0.388,0.536 -0.814,1.123 -1.284,1.771 0.695,-0.956 1.361,-1.935 2.037,-2.906 0.029,-0.042 0.056,-0.085 0.085,-0.128 0.74,-1.094 1.831,-2.589 2.303,-3.205 1.253,-1.751 2.502,-3.506 3.775,-5.243 4.058,-5.537 8.217,-11 12.477,-16.383 8.277,-10.46 16.934,-20.62 25.962,-30.44 2.156,-2.345 4.344,-4.658 6.53,-6.975 0.119,-0.121 0.238,-0.242 0.357,-0.363 5.069,-5.098 10.244,-10.09 15.523,-14.969 9.76,-9.021 19.877,-17.655 30.331,-25.861 4.805,-3.771 9.68,-7.453 14.625,-11.038 0.344,-0.249 1.641,-1.164 2.581,-1.829 0.111,-0.076 0.207,-0.143 0.268,-0.184 2.97,-2.032 5.964,-4.029 8.98,-5.992 10.888,-7.088 22.076,-13.717 33.527,-19.855 12.179,-6.527 24.657,-12.497 37.387,-17.871 0.55,-0.232 1.106,-0.456 1.661,-0.682 0.142,-0.06 0.281,-0.117 0.414,-0.171 0.664,-0.271 1.326,-0.544 1.978,-0.835 -0.448,0.2 -0.853,0.379 -1.219,0.541 3.291,-1.253 6.568,-2.535 9.877,-3.741 6.251,-2.28 12.554,-4.419 18.901,-6.415 26.775,-8.417 54.345,-14.259 82.219,-17.525 1.936,-0.227 3.873,-0.44 5.811,-0.642 0.229,-0.024 0.738,-0.076 1.298,-0.134 1.132,-0.096 3.808,-0.339 3.957,-0.351 1.406,-0.111 2.813,-0.217 4.22,-0.32 6.619,-0.485 13.244,-0.884 19.873,-1.198 12.619,-0.597 25.254,-0.873 37.887,-0.8 24.206,0.141 48.414,1.567 72.444,4.514 22.843,2.801 45.525,6.978 67.816,12.712 5.28,1.358 10.538,2.804 15.77,4.339 2.279,0.668 4.729,1.162 6.916,2.085 -7.178,-3.031 2.712,0.922 4.502,1.527 10.398,3.508 20.673,7.381 30.791,11.633 39.867,16.752 77.152,39.442 110.151,67.406 3.674,3.114 7.222,6.364 10.85,9.528 0.814,0.775 1.637,1.54 2.451,2.315 2.147,2.044 4.272,4.111 6.376,6.199 7.865,7.805 15.429,15.911 22.689,24.282 14.989,17.283 28.651,35.701 41.018,54.943 13.135,20.437 24.089,41.818 35.003,63.478 0.52,1.153 1.047,2.303 1.565,3.457 1.122,2.499 2.227,5.005 3.316,7.519 2.759,6.369 5.413,12.784 7.967,19.238 4.86,12.286 9.354,24.716 13.511,37.257 8.69,26.218 15.906,52.915 21.891,79.875 3.509,15.808 6.748,31.711 9.034,47.747 0.049,0.42 0.106,0.906 0.178,1.525 0.225,1.924 0.462,3.845 0.676,5.77 0.479,4.313 0.897,8.633 1.258,12.958 0.758,9.062 1.261,18.144 1.509,27.234 0.494,18.001 -0.169,35.941 -1.439,53.895 z"
     id="path4-5" /><path
     d="m 620.169,723.441 c -0.028,0.273 -0.057,0.545 -0.086,0.818 -0.07,0.795 -0.147,1.591 -0.207,2.38 -0.031,0.415 -0.052,0.831 -0.082,1.247 -0.031,1.603 0.123,2.059 0.375,-4.445 z"
     id="path5-3" /><path
     d="m 715.017,469.851 c -0.641,0.896 -1.296,1.783 -1.932,2.683 -0.153,0.216 -0.304,0.433 -0.456,0.65 -0.254,0.376 -0.5,0.758 -0.753,1.135 3.344,-4.62 3.737,-5.246 3.141,-4.468 z"
     id="path6-4" /><path
     d="m 1041.605,453.821 c 2.409,-0.046 1.477,-0.045 0,0 z"
     id="path7-1" /><path
     d="m 1220.701,404.88 c -74.394,-27.209 -157.137,-31.55 -233.021,-7.328 -75.478,24.092 -141.844,73.628 -188.377,137.591 -50.867,69.922 -80.062,151.891 -85.95,238.081 -5.27,77.151 12.252,155.539 54.693,220.646 39.269,60.241 98.989,106.719 165.782,132.726 73.481,28.611 154.525,35.867 232.004,21.158 76.564,-14.535 145.583,-53.158 199.371,-109.216 54.149,-56.434 88.917,-132.124 99.933,-209.298 2.985,-20.91 4.549,-42.105 4.595,-63.228 -0.194,-79.751 -25.195,-158.833 -71.347,-223.934 C 1354.602,480.32 1291.915,430.927 1220.701,404.88 Z m 182.069,477.382 c 0.324,-1.244 0.251,-0.952 0,0 z m 7.968,-131.015 c 0.118,0.852 0.283,2.046 0.341,2.521 0.346,2.853 0.66,5.711 0.938,8.572 1.122,11.562 1.657,23.164 1.686,34.779 -0.013,5.807 -0.125,11.613 -0.378,17.415 -0.113,2.579 -0.252,5.157 -0.416,7.734 -0.096,1.501 -0.514,5.992 -0.617,7.262 -1.018,9.199 -2.234,18.36 -3.9,27.476 -1.691,9.253 -3.883,18.352 -6.207,27.449 -0.354,1.309 -0.745,2.725 -0.997,3.542 -0.783,2.541 -1.597,5.072 -2.44,7.594 -1.673,5.005 -3.464,9.97 -5.372,14.89 -1.702,4.389 -3.498,8.742 -5.388,13.053 -1.044,2.382 -2.155,4.732 -3.215,7.106 0.729,-1.631 1.304,-2.915 1.757,-3.924 -0.604,1.313 -1.275,2.745 -1.727,3.64 -4.516,8.933 -9.449,17.655 -14.785,26.123 -1.31,2.078 -2.647,4.14 -4.005,6.187 -2.802,3.854 -5.592,7.708 -8.532,11.463 -5.947,7.595 -12.29,14.822 -18.85,21.888 -1.66,1.653 -3.334,3.291 -5.03,4.906 -3.662,3.486 -7.409,6.884 -11.236,10.189 -7.418,6.407 -15.372,13.958 -23.961,18.756 -0.049,0.027 7.553,-5.201 3.329,-2.366 -1.058,0.71 -2.107,1.436 -3.166,2.145 -1.91,1.278 -3.833,2.537 -5.77,3.774 -4.321,2.759 -8.708,5.416 -13.155,7.967 -8.979,5.151 -18.204,9.873 -27.627,14.158 -2.378,1.081 -4.768,2.135 -7.171,3.16 -0.255,0.109 -0.511,0.215 -0.766,0.323 -5.031,1.725 -9.947,3.844 -14.981,5.579 -9.889,3.409 -19.932,6.371 -30.084,8.892 -10.652,2.645 -21.425,4.807 -32.27,6.495 -4.972,0.773 -9.96,1.45 -14.959,2.028 -2.802,0.324 -5.624,0.531 -8.422,0.882 7.941,-0.996 -2.297,0.143 -4.283,0.273 -48.889,3.213 -98.363,-2.234 -145.273,-16.407 -47.653,-15.476 -91.994,-40.221 -129.213,-73.857 -19.592,-18.569 -36.924,-39.447 -51.275,-62.329 -3.731,-5.949 -7.264,-12.021 -10.587,-18.207 -1.608,-2.992 -3.165,-6.011 -4.675,-9.054 -0.768,-1.549 -1.512,-3.109 -2.264,-4.665 -0.072,-0.166 -0.149,-0.345 -0.239,-0.551 -5.745,-13.185 -10.805,-26.6 -14.839,-40.413 -4.19,-14.344 -7.217,-28.921 -9.552,-43.671 -0.211,-1.769 -0.434,-3.536 -0.629,-5.307 -0.434,-3.944 -0.799,-7.895 -1.096,-11.851 -0.584,-7.762 -0.91,-15.543 -0.985,-23.326 -0.076,-7.872 0.09,-15.747 0.475,-23.61 0.184,-3.758 0.419,-7.514 0.706,-11.266 0.018,-0.232 0.112,-1.142 0.189,-1.971 0.106,-1.051 0.209,-2.103 0.326,-3.153 1.725,-15.547 4.35,-30.994 7.872,-46.234 0.823,-3.563 1.695,-7.116 2.617,-10.655 0.301,-1.157 0.615,-2.311 0.926,-3.466 0.026,-0.09 0.05,-0.182 0.076,-0.272 2.14,-7.206 4.487,-14.35 7.038,-21.421 2.532,-7.02 5.265,-13.967 8.199,-20.829 1.27,-2.971 2.597,-5.915 3.929,-8.858 0.683,-1.389 1.362,-2.779 2.061,-4.16 6.63,-13.096 14.022,-25.807 22.149,-38.031 0.662,-0.995 1.466,-1.988 2.13,-3.02 1.833,-2.539 3.691,-5.061 5.59,-7.552 4.393,-5.763 8.959,-11.393 13.695,-16.878 2.274,-2.633 4.587,-5.232 6.938,-7.797 1.084,-1.182 2.179,-2.354 3.279,-3.521 4.776,-4.672 9.537,-9.339 14.525,-13.793 5.56,-4.965 11.283,-9.747 17.161,-14.332 2.728,-2.128 5.489,-4.213 8.282,-6.255 0.254,-0.186 0.695,-0.502 1.168,-0.842 0.867,-0.598 1.762,-1.214 2.202,-1.51 11.963,-8.05 24.454,-15.308 37.38,-21.697 5.276,-2.608 10.671,-4.908 16.042,-7.282 0.437,-0.2 1.08,-0.488 1.728,-0.771 0.688,-0.307 1.378,-0.608 2.064,-0.92 -0.508,0.231 -0.962,0.437 -1.369,0.621 0.38,-0.161 0.735,-0.308 1.018,-0.417 1.515,-0.584 3.035,-1.156 4.559,-1.717 3.823,-1.406 7.673,-2.74 11.547,-3.999 14.15,-4.597 28.622,-8.198 43.273,-10.787 7.485,-1.323 15.017,-2.381 22.576,-3.179 0.641,-0.068 1.836,-0.117 2.802,-0.147 -0.495,0.01 -1.124,0.021 -1.928,0.035 1.707,-0.029 3.435,-0.269 5.139,-0.382 4.029,-0.269 8.063,-0.464 12.1,-0.588 31.299,-0.966 62.732,2.335 93.16,9.723 6.096,1.48 12.143,3.143 18.152,4.941 49.223,15.881 94.459,42.304 132.84,76.937 27.054,25.471 50.343,54.814 68.756,87.109 4.722,8.283 8.738,16.873 13.138,25.311 0.301,0.671 0.604,1.341 0.901,2.014 0.903,2.041 1.786,4.091 2.651,6.148 1.948,4.638 3.804,9.316 5.559,14.031 6.883,18.493 12.264,37.543 16.042,56.911 0.986,5.061 1.855,10.141 2.623,15.238 z"
     id="path8-0" /><path
     d="m 1386.529,926.714 c 1.321,-2.872 2.317,-5.162 0,0 z"
     id="path9-4" /><path
     d="m 955.83,474.066 c -0.226,0.096 -0.461,0.197 -0.695,0.299 -0.576,0.257 -1.152,0.516 -1.728,0.771 -0.975,0.444 -0.918,0.443 2.423,-1.07 z"
     id="path10-8" /></g>
			
		</g>
	</g></g></svg>
